# xmcd CD database file
#
# Track frame offsets:
#	150
#	17893
#	36215
#	55037
#
# Disc length: 968 seconds
#
# Revision: 0
# Processed by: cddbd v1.5.1PL0 Copyright (c) Steve Scherf et al.
# Submitted via: CD2WAV32(JP) R3.22
#
DISCID=2a03c604
DTITLE=eufonius - ちいさなうた
DYEAR=2005
DGENRE=Vocal
TTITLE0=ちいさなうた
TTITLE1=ラクガキ
TTITLE2=瞬間
TTITLE3=ちいさなうた (instrumental)
EXTD=
EXTT0=作詞:riya 曲:菊池創
EXTT1=作詞:riya 曲:菊池創
EXTT2=作詞作曲:菊池創
EXTT3=曲:菊池創
PLAYORDER=
